<?xml version="1.0" encoding="UTF-8" standalone="no"?>
<!DOCTYPE svg PUBLIC "-//W3C//DTD SVG 1.1//EN" "http://www.w3.org/Graphics/SVG/1.1/DTD/svg11.dtd">
<!-- Created with Vectornator (http://vectornator.io/) -->
<svg height="100%" stroke-miterlimit="10" style="fill-rule:nonzero;clip-rule:evenodd;stroke-linecap:round;stroke-linejoin:round;" version="1.1" viewBox="0 0 1024 1024" width="100%" xml:space="preserve" xmlns="http://www.w3.org/2000/svg" xmlns:xlink="http://www.w3.org/1999/xlink">
<defs/>
<g id="Layer-1">
<g opacity="1">
<path d="M633.441 138.236C626.067 133.38 619.718 126.39 611.319 123.668C604.586 121.487 596.431 127.347 590.095 124.194C580.785 119.563 577.598 106.226 568.037 102.135C561.159 99.1925 552.714 102.365 545.812 105.25C536.675 109.069 529.342 116.251 521.107 121.752C511.495 114.599 503.743 103.752 492.271 100.295C486.635 98.5954 480.629 104.086 476.54 108.321C472.304 112.708 474.606 123.729 468.603 124.805C449.913 128.155 430.811 118.906 411.85 119.916C396.466 120.735 382.909 132.122 371.532 142.51C362.977 121.38 356.705 99.1742 345.868 79.1189C337.918 64.4068 327.397 50.9743 315.643 39.0791C306.813 30.1412 296.869 20.9835 284.839 17.3547C275.193 14.445 263.543 15.716 254.801 20.7247C243.28 27.3267 234.165 38.3648 227.82 50.028C217.675 68.6743 210.675 89.1862 206.259 109.95C200.503 137.008 195.937 164.86 197.516 192.479C198.974 217.988 209.332 242.195 215.241 267.054C204.908 273.573 191.425 276.727 184.243 286.61C179.368 293.317 180.344 303.589 182.978 311.453C185.741 319.703 198.663 323.095 199.367 331.768C200.27 342.879 189.237 351.952 187.157 362.904C186.078 368.591 192.189 374.559 190.21 379.999C186.969 388.906 177.067 394.01 172.767 402.457C167.252 413.297 163.368 425.09 161.177 437.053C159.765 444.775 160.024 453.022 162.126 460.586C163.533 465.646 171.187 468.156 171.284 473.407C171.616 491.506 162.256 509.062 163.347 527.132C164.143 540.304 176.88 551.177 176.778 564.373C176.57 591.606 162.751 617.574 162.447 644.807C162.329 655.369 174.449 663.15 175.557 673.655C176.782 685.258 167.986 696.451 169.125 708.063C170.119 718.2 180.506 725.808 181.663 735.927C183.139 748.844 176.14 761.628 176.73 774.615C177.201 785.021 179.71 795.712 184.786 804.807C188.445 811.367 197.348 813.525 201.809 819.567C211.896 833.223 215.772 851.455 227.966 863.269C236.342 871.384 251.417 868.929 260.419 876.345C278.455 891.202 288.816 914.135 307.212 928.546C314.29 934.09 325.672 929.645 333.68 933.733C346.646 940.352 354.798 955.402 368.641 959.905C383.975 964.894 401.4 956.789 417.007 960.841C426.782 963.378 432.03 975.047 441.406 978.797C450.256 982.337 461.058 978.219 469.824 981.963C486.951 989.277 499.54 1007.86 518.012 1010.24C540.142 1013.09 551.316 989.48 568.116 981.353C576.377 977.356 586.967 981.365 595.412 977.776C605.682 973.412 611.728 960.821 622.576 958.209C637.146 954.702 653.223 965.051 667.477 960.428C681.51 955.877 688.962 939.746 701.818 932.512C709.263 928.322 719.19 930.8 726.849 927.017C748.023 916.56 757.638 891.043 775.08 875.124C778.828 871.702 785.717 875.202 790.105 872.649C808.48 861.956 814.084 837.533 826.363 820.177C831.253 813.265 840.516 810.253 845.341 803.297C861.51 779.983 845.789 756.649 847.731 730.432C848.529 719.647 858.146 710.705 858.72 699.907C859.216 690.583 850.43 682.374 850.783 673.044C851.009 667.073 858.569 663.576 860.311 657.862C862.868 649.483 864.42 640.46 863.377 631.764C861.599 616.934 852.581 603.354 851.987 588.431C851.603 578.768 860.313 570.378 860.551 560.71C860.746 552.797 852.794 546.025 853.225 538.121C853.776 528.01 863.802 519.591 863.342 509.475C862.726 495.923 850.827 484.516 850.173 470.965C849.578 458.657 859.526 447.583 859.759 435.263C859.951 425.222 855.682 415.402 851.402 406.317C847.087 397.159 836.892 391.006 834.299 381.22C832.089 372.874 839.545 364.065 837.963 355.578C836.335 346.845 824.518 341.063 825.164 332.203C825.777 323.792 837.74 320.289 841.098 312.554C843.906 306.088 844.327 298.368 842.847 291.474C841.665 285.969 838.028 280.781 833.549 277.37C827.906 273.076 819.244 273.97 813.833 269.389C807.005 263.609 798.92 256.441 798.279 247.518C797.031 230.157 806.775 213.64 808.581 196.33C812.714 156.697 807.061 123.221 793.483 85.1764C787.438 68.2396 780.065 51.2954 769.065 37.0693C761.579 27.3878 750.525 20.5989 739.477 15.3363C728 9.86856 709.46 17.837 701.728 25.0923C686.666 39.2256 671.731 54.1587 661.058 71.8428C648.673 92.3646 642.646 116.105 633.441 138.236Z" fill="#211b22" fill-rule="nonzero" opacity="1" stroke="none"/>
<path d="M656.03 168.151L687.246 178.765C693.705 160.818 698.028 141.952 706.622 124.923C711.686 114.886 720.673 107.372 727.699 98.5967C743.016 137.301 752.586 168.261 743.79 210.507C740.671 225.479 729.401 238.948 729.902 254.233C730.289 266.054 743.752 274.164 746.251 285.723C747.321 290.672 739.314 294.361 739.67 299.411C740.443 310.353 749.197 319.869 749.436 330.835C749.557 336.312 745.461 342.089 740.663 344.732C734.198 348.292 725.853 349.662 718.725 347.744C708.109 344.888 699.721 336.686 690.219 331.158C686.642 336.66 685.075 344.216 679.491 347.665C674.597 350.687 667.464 350.863 662.252 348.428C650.059 342.733 640.602 332.437 629.778 324.442C599.16 357.957 574.273 328.733 551.633 303.074C534.64 322.023 515.015 343.398 490.014 348.168C475.099 351.014 458.422 353.621 444.465 347.641C435.276 343.706 434.102 330.547 428.92 322C418.658 327.089 409.508 335.898 398.137 337.268C390.89 338.141 385.488 327.18 378.247 328.105C368.392 329.365 362.022 340.302 352.491 343.105C337.356 347.556 321.357 350.127 305.596 349.473C299.259 349.209 291.74 346.101 288.84 340.459C284.724 332.453 287.683 322.492 287.104 313.508C281.192 312.848 274.596 314.369 269.366 311.531C265.402 309.379 260.786 304.288 262.25 300.022C266.629 287.262 284.81 279.933 284.839 266.443C284.883 245.692 266.254 228.755 262.445 208.356C258.609 187.796 259.235 166.304 262.288 145.612C264.741 128.983 273.251 113.833 278.734 97.9422C286.104 109.452 295.181 120.032 300.843 132.472C308.71 149.756 312.966 168.468 319.028 186.466L348.332 171.204C340.162 136.639 325.161 103.395 306.344 73.2726C298.279 60.3615 284.298 51.0671 270.173 45.3893C263.666 53.1392 254.932 59.469 250.65 68.6376C241.041 89.2155 233.304 110.96 229.13 133.283C225.076 154.965 223.183 177.541 226.203 199.39C229.635 224.23 247.401 246.265 248.208 271.327C248.514 280.803 236.659 286.632 229.201 292.484C223.18 297.207 215.416 299.138 208.525 302.464C214.67 305.265 220.209 310.706 226.961 310.868C237.968 311.134 248.452 306.079 259.197 303.685L242.714 312.232L257.976 322C246.355 330.215 232.855 336.271 223.111 346.645C216.806 353.358 211.684 371.472 219.669 371.138C231.97 370.622 243.986 367.277 256.145 365.346C239.74 377.756 221.113 387.673 206.932 402.573C198.47 411.463 194.405 423.78 189.727 435.128C188.886 437.169 190.456 439.483 190.82 441.66L228.061 429.45C215.082 448.159 198 466.696 195.094 489.28L218.293 478.291L189.871 518.516L218.904 515.532C213.064 526.408 205.534 536.534 201.384 548.16C199.535 553.344 198.406 560.031 201.367 564.67C204.026 568.832 210.617 568.135 215.241 569.868C208.247 581.731 198.565 592.376 194.26 605.457C190.171 617.88 188.941 631.562 190.664 644.527C191.359 649.752 195.774 656.165 201.036 656.464C211.358 657.05 220.682 650.016 230.503 646.792C222.375 656.366 212.996 665.005 206.117 675.513C201.669 682.307 197.378 689.966 196.925 698.075C196.548 704.837 201.502 710.823 203.79 717.196L233.556 707.843C225.368 719.366 214.382 729.344 208.99 742.413C204.363 753.632 204.192 766.395 204.393 778.53C204.453 782.104 207.962 784.724 209.746 787.82C214.222 780.589 216.883 771.848 223.176 766.126C228.602 761.195 236.609 760.239 243.324 757.295C220.424 797.748 224.147 816.057 253.757 850.786C256.381 839.083 255.521 825.998 261.629 815.674C267.123 806.385 278.324 801.989 286.671 795.146C283.457 803.64 277.673 811.569 277.031 820.628C274.203 860.487 302.659 886.249 329.896 909.067L345.28 891.607C354.851 907.129 363.619 926.443 380.417 933.54L388.015 910.533L410.15 939.084L427.088 909.312C430.483 919.453 431.343 930.834 437.272 939.734C442.308 947.295 451.509 951.021 458.627 956.665L472.266 922.743C476.635 934.002 478.065 946.905 485.373 956.519C494.053 967.941 507.567 974.703 518.665 983.795C529.598 974.958 542.866 968.406 551.464 957.285C558.64 948.004 560.124 935.479 564.453 924.575L579.716 955.711C600.282 940.883 602.913 930.77 609.021 905.649L621.231 939.227L648.093 909.923L656.641 935.564C675.498 922.804 683.322 912.227 691.44 890.997L703.65 909.312C721.608 894.065 742.682 881.774 750.886 858.117C754.565 847.509 756.799 835.974 755.791 824.79C754.834 814.144 748.707 804.62 745.165 794.536C753.134 800.349 763.668 803.725 769.074 811.977C775.888 822.377 776.334 835.759 779.964 847.65C806.29 811.844 806.732 794.884 784.238 756.684C791.113 758.845 799.298 758.592 804.863 763.17C812.604 769.538 816.347 779.603 822.089 787.82C837.375 752.788 817.437 735.126 796.448 708.454L822.7 715.78C824.714 708.835 831.44 701.655 828.744 694.944C821.515 676.953 806.399 663.25 795.227 647.403L828.194 656.56C836.042 644.123 836.657 626.495 831.857 612.595C826.323 596.563 814.763 583.297 806.216 568.647C812.752 569.323 819.537 572.583 825.826 570.676C829.518 569.556 833.094 564.526 831.936 560.846C826.89 544.821 816.418 531.044 808.658 516.143L832.468 517.974L803.163 478.291L830.026 488.67C826.315 478.508 824.199 467.616 818.895 458.187C813.077 447.842 804.337 439.436 797.058 430.061L830.636 442.881C831.152 440.594 832.982 438.224 832.182 436.02C828.008 424.51 824.188 412.209 816.16 402.965C803.281 388.134 785.924 377.886 770.806 365.346L810.325 371.317C806.308 361.02 805.847 348.478 798.276 340.426C788.649 330.191 773.858 326.514 761.649 319.558L814.763 300.632C807.201 295.989 798.57 292.752 792.078 286.703C783.489 278.704 777.49 268.313 770.196 259.117L758.7 276.647C770.86 238.096 786.319 197.852 782.08 157.653C779.617 134.303 773.905 111.046 765.032 89.3083C758.263 72.7256 745.532 59.2577 735.784 44.233C728.091 47.5225 719.148 48.7655 712.706 54.1026C676.544 84.064 667.655 125.294 656.03 168.151Z" fill="#fefefe" fill-rule="nonzero" opacity="1" stroke="none"/>
<path d="M519.275 163.877L510.118 140.678C502.947 150.582 501.191 163.545 498.518 175.477C463.626 147.79 430.445 136.972 390.457 160.825C397.653 167.423 404.891 174.283 410.137 182.518C370.396 177.402 339.995 173.133 312.923 206.613C327.067 210.039 340.855 215.279 353.827 221.876C331.232 229.188 312.555 233.565 299.341 254.623C309.32 255.294 319.749 256.073 328.796 260.338C303.578 266.762 281.984 275.816 272.582 302.309C281.243 305.482 291.093 301.393 300.102 299.411C298.297 306.146 291.36 324.011 295.025 333.111C298.059 340.646 310.123 340.685 315.643 340.838C346.034 341.673 362.792 331.163 384.352 311.011C387.146 349.906 424.563 315.336 438.077 302.464C437.83 310.359 435.97 318.367 437.335 326.148C440.817 345.998 467.957 344.472 481.424 342.147C514.625 336.415 536.873 316.399 552.854 288.422C558.153 296.161 562.536 304.611 568.75 311.637C575.936 319.761 604.332 343.065 616.104 327.39C620.536 321.487 623.185 314.436 626.726 307.958C638.208 320.016 647.891 337.07 664.025 341.182C667.829 342.152 676.764 339.967 678.619 335.431C681.383 328.668 681.875 321.186 683.503 314.063C693.397 323.259 701.422 332.828 714.489 337.628C735.604 345.384 745.855 330.331 738.122 311.343C734.974 303.613 729.793 296.876 725.628 289.643C730.318 285.222 744.354 294.559 739.891 281.037C738.549 276.972 736.183 273.314 734.061 269.597C733.05 267.827 731.696 266.274 730.512 264.612C716.224 278.781 709.69 268.182 696.324 256.065L718.913 259.117C715.002 234.07 684.394 226.744 664.577 220.045C675.664 213.379 688.526 209.782 701.208 207.224C695.914 177.062 630.738 177.062 608.922 179.524C612.534 175.463 616.818 171.912 619.757 167.339C625.928 157.736 609.316 152.816 603.771 152.474C596.229 152.008 588.341 151.014 581.114 153.217C572.738 155.77 565.937 161.952 558.348 166.319C561.807 155.534 566.633 145.094 568.727 133.962C569.808 128.221 556.471 131.943 551.208 134.479C535.13 142.224 531.475 149.886 519.275 163.877Z" fill="#f0a15a" fill-rule="nonzero" opacity="1" stroke="none"/>
<path d="M544.306 457.534C534.217 457.808 522.129 471.426 512.56 468.523C506.803 466.775 502.039 462.613 496.459 460.364C483.839 455.277 461.138 461.844 460.747 478.358C460.609 484.188 464.332 487.988 468.229 492.161C472.443 496.673 482.619 491.445 489.082 495.891C503.992 506.149 521.68 533.473 502.068 548.335C491.48 556.356 468.629 548.436 461.277 539.342C455.161 531.777 457.379 516.924 443.867 523.856C433.01 529.426 452.921 550.555 455.478 552.797C459.114 555.983 464.533 557.026 467.596 560.767C470.279 564.046 469.919 568.969 471.817 572.758C478.835 586.78 497.572 597.843 513.242 597.772C529.24 597.7 551.491 589.218 560.821 575.113C563.8 570.61 563.71 564.459 566.895 560.1C571.528 553.76 578.436 549.428 583.789 543.684C586.543 540.73 592.576 533.553 591.228 528.237C590.109 523.825 583.901 521.073 579.716 522.858C573.856 525.359 573.624 534.121 569.674 539.12C558.472 553.301 528.873 558.914 523.803 536.989C519.86 519.942 535.284 506.404 546.05 495.788C553.048 488.888 564.557 496.272 571.049 486.286C581.938 469.537 555.2 457.237 544.306 457.534Z" fill="#211b22" fill-rule="nonzero" opacity="1" stroke="none"/>
<path d="M708.534 492.333C634.753 499.971 649.092 593.394 720.134 593.067C756.874 592.897 784.524 547.464 763.823 515.872C751.528 497.107 729.211 490.192 708.534 492.333Z" fill="#f9c5cb" fill-rule="nonzero" opacity="1" stroke="none"/>
<path d="M389.847 793.925C396.309 817.004 405.873 833.498 425.257 848.261C427.606 839.702 422.837 830.671 421.332 821.924C419.054 808.666 420.459 795.773 425.469 783.339C443.98 737.397 500.405 731.895 467.992 680.981C455.37 699.998 451.732 676.47 440.657 665.082C434.147 668.924 435.119 667.657 429.403 676.751C412.125 704.245 395.232 731.983 378.509 759.82C368.828 775.932 368.677 809.262 383.566 822.695C390.773 817.853 386.656 802.524 389.847 793.925Z" fill="#e9ecf0" fill-rule="nonzero" opacity="1" stroke="none"/>
<path d="M306.817 492.943C230.292 502.716 253.877 599.677 323.679 592.792C359.643 589.247 378.593 543.456 359.916 515.046C348.122 497.108 326.417 490.44 306.817 492.943Z" fill="#f9c5cb" fill-rule="nonzero" opacity="1" stroke="none"/>
<path d="M613.905 667.55C585.686 692.773 620.496 719.811 632.844 741.027C636.022 746.489 635.088 767.551 635.097 771.765C627.694 768.829 620.49 764.76 612.591 763.748C612.483 773.141 619.569 779.431 623.073 788.176C626.755 797.364 628.821 805.13 630.47 815.23C632.538 827.888 623.774 860.115 627.237 864.081C640.147 852.455 639.467 835.86 646.872 820.788C649.902 826.732 648.224 832.395 653.052 837.433C676.996 810.284 653.695 798.154 654.315 772.065C654.488 764.763 655.664 757.51 656.763 750.289C656.857 749.665 657.495 749.262 657.862 748.748L682.282 775.61C693.165 740.266 678.958 689.339 652.278 664.172C644.474 679.436 643.918 664.303 631.987 660.601C629.177 666.865 626.62 673.677 621.656 678.418C617.823 676.158 616.225 671.347 613.905 667.55Z" fill="#e9ecf0" fill-rule="nonzero" opacity="1" stroke="none"/>
<path d="M715.25 385.493C712.295 389.643 708.334 398.492 701.818 400.145C690.832 402.933 676.222 398.843 666.409 398.314C653.291 397.607 642.361 408.225 634.052 416.629C630.889 419.827 627.474 427.755 626.484 431.006C617.264 461.258 643.084 503.218 678.051 490.585C704.298 481.102 702.027 466.27 712.808 444.713C722.926 449.756 727.71 454.06 738.538 454.153C749.397 454.245 770.217 440.338 762.259 428.229C755.826 433.765 748.396 444.156 739.06 439.829C742.369 437.16 746.532 434.93 748.343 431.084L723.797 429.45C730.956 423.976 741.983 419.843 738.449 409.914C729.957 415.428 725.262 421.848 715.86 418.461C721.848 412.916 731.217 407.164 726.239 398.314C719.787 404.301 714.528 414.461 705.482 409.914C710.885 404.867 723.63 393.873 715.25 385.493ZM317.807 388.546C312.808 397.917 318.776 402.763 325.743 409.303C317.192 414.166 312.208 404.286 307.428 398.314C301.539 407.641 310.997 412.389 317.807 419.071C307.168 425.455 303.745 413.093 293.105 410.641C290.309 417.275 299.226 426.018 304.375 429.45C297.588 434.367 290.826 430.978 283.618 428.229C285.067 433.106 289.073 436.95 292.776 440.439C283.01 444.884 275.542 434.108 268.966 428.229C265.662 433.506 268.574 438.009 271.762 442.81C283.053 459.813 304.572 451.176 319.028 445.323C326.528 462.8 325.119 481.916 347.58 489.229C380.959 500.097 412.779 465.387 401.618 431.903C398.813 423.493 390.985 414.163 385.59 408.555C368.816 391.121 347.904 406.144 331.476 400.905C324.749 398.76 322.647 394.044 317.807 388.546Z" fill="#211b22" fill-rule="nonzero" opacity="1" stroke="none"/>
<path d="M278.123 96.1107C255.224 135.231 253.439 187.984 267.134 230.423C269.123 236.587 279.944 269.936 287.89 268.787C292.561 268.111 289.526 259.492 290.334 254.844C291.574 247.704 298.573 242.806 303.765 237.749C315.065 226.743 327.265 226.947 340.396 219.434C329.999 211.154 313.546 222.231 304.606 214.809C293.623 205.688 319.661 187.505 319.638 185.856C319.212 155.38 296.02 119.144 278.123 96.1107Z" fill="#a66936" fill-rule="nonzero" opacity="1" stroke="none"/>
<path d="M373.974 662.665C370.118 658.198 366.462 653.416 361.763 649.845C336.176 677.032 330.368 693.838 330.627 731.043C330.688 739.752 330.542 745.047 334.901 751.8C339.308 745.547 342.538 738.529 345.89 731.653C350.501 746.422 343.054 762.977 351.995 776.221C357.188 770.435 355.849 772.499 360.542 763.4C367.992 748.961 374.941 734.266 382.55 719.912C387.909 709.803 400.128 703.095 401.984 691.34C402.883 685.641 395.243 677.273 394.121 674.265C393.003 671.269 390.229 634.444 377.849 648.528C374.406 652.446 376.551 658.175 373.974 662.665Z" fill="#e9ecf0" fill-rule="nonzero" opacity="1" stroke="none"/>
<path d="M472.877 492.943C454.297 476.052 463.239 457.867 482.183 444.688C503.427 429.912 540.645 432.709 557.613 452.618C567.564 464.292 577.352 480.059 563.843 492.333C575.612 500.976 582.579 475.039 581.363 467.614C576.412 437.411 534.294 422.297 508.286 423.345C484.907 424.286 459.777 441.029 452.318 463.854C448.507 475.513 455.97 501.15 472.877 492.943Z" fill="#f8c68f" fill-rule="nonzero" opacity="1" stroke="none"/>
<path d="M511.339 433.724C497.956 436.45 451.321 452.902 463.108 473.407C484.539 445.707 493.611 469.133 520.496 469.744C527.088 469.894 536.265 461.706 539.961 459.897C549.563 455.198 556.55 463.253 564.55 466.01C569.799 467.819 565.273 458.803 565.033 458.524C561.982 454.96 558.731 451.572 555.296 448.376C546.966 440.607 537.381 437.733 511.339 433.724Z" fill="#f0a15a" fill-rule="nonzero" opacity="1" stroke="none"/>
<path d="M669.461 640.077C681.502 669.843 712.935 692.897 706.092 729.211C714.251 732.319 719.297 693.552 718.201 688.17C713.328 664.255 692.49 645.44 669.461 640.077ZM333.68 636.413C306.682 648.588 299.087 673.882 296.829 701.967C296.184 710.009 294.884 719.581 299.491 726.769C305.333 718.398 302.977 712.287 306.985 701.261C314.733 679.942 332.62 659.788 333.68 636.413ZM539.422 691.36C527.273 704.886 510.803 740.408 524.16 757.295C539.344 739.728 559.757 713.027 539.422 691.36Z" fill="#e9ecf0" fill-rule="nonzero" opacity="1" stroke="none"/>
<path d="M492.413 566.815C505.228 579.576 530.702 584.714 541.254 566.815C539.129 565.623 519.565 555.456 518.665 555.215C514.91 554.213 512.821 560.538 509.273 562.12C502.798 565.008 497.756 563.041 492.413 566.815ZM376.416 420.292C357.191 425.245 361.363 446.544 381.3 446.544C393.648 446.544 392.809 429.36 386.794 423.345C384.014 420.565 379.901 419.395 376.416 420.292ZM674.956 420.292C657.961 424.533 662.248 445.934 679.23 445.934C691.954 445.934 691.2 429.821 684.724 423.345C682.593 421.214 677.745 419.596 674.956 420.292Z" fill="#fefefe" fill-rule="nonzero" opacity="1" stroke="none"/>
<path d="M326.354 410.524L327.575 412.356C329.712 411.287 331.271 412.323 333.069 410.524C330.89 408.345 328.405 408.473 326.354 410.524Z" fill="#000000" fill-rule="nonzero" opacity="1" stroke="none"/>
</g>
</g>
</svg>
